<mxfile host="65bd71144e">
    <diagram id="FEUP5PzJvZKOrEICPrXX" name="Page-1">
        <mxGraphModel dx="860" dy="642" grid="1" gridSize="10" guides="1" tooltips="0" connect="1" arrows="1" fold="1" page="0" pageScale="1" pageWidth="850" pageHeight="1100" math="0" shadow="0">
            <root>
                <mxCell id="0"/>
                <mxCell id="1" parent="0"/>
                <mxCell id="2" value="Venues" style="shape=cylinder3;whiteSpace=wrap;html=1;boundedLbl=1;backgroundOutline=1;size=15;" vertex="1" parent="1">
                    <mxGeometry x="280" y="80" width="60" height="80" as="geometry"/>
                </mxCell>
                <mxCell id="3" value="Events" style="shape=cylinder3;whiteSpace=wrap;html=1;boundedLbl=1;backgroundOutline=1;size=15;" vertex="1" parent="1">
                    <mxGeometry x="400" y="80" width="60" height="80" as="geometry"/>
                </mxCell>
                <mxCell id="4" value="Artists" style="shape=cylinder3;whiteSpace=wrap;html=1;boundedLbl=1;backgroundOutline=1;size=15;" vertex="1" parent="1">
                    <mxGeometry x="510" y="80" width="60" height="80" as="geometry"/>
                </mxCell>
                <mxCell id="5" value="Albums" style="shape=cylinder3;whiteSpace=wrap;html=1;boundedLbl=1;backgroundOutline=1;size=15;" vertex="1" parent="1">
                    <mxGeometry x="620" y="160" width="60" height="80" as="geometry"/>
                </mxCell>
                <mxCell id="6" value="Songs" style="shape=cylinder3;whiteSpace=wrap;html=1;boundedLbl=1;backgroundOutline=1;size=15;" vertex="1" parent="1">
                    <mxGeometry x="510" y="240" width="60" height="80" as="geometry"/>
                </mxCell>
                <mxCell id="7" value="Genres" style="shape=cylinder3;whiteSpace=wrap;html=1;boundedLbl=1;backgroundOutline=1;size=15;" vertex="1" parent="1">
                    <mxGeometry x="354" y="190" width="60" height="80" as="geometry"/>
                </mxCell>
                <mxCell id="8" value="EventsArtists" style="shape=cylinder3;whiteSpace=wrap;html=1;boundedLbl=1;backgroundOutline=1;size=15;" vertex="1" parent="1">
                    <mxGeometry x="427" y="-30" width="100" height="80" as="geometry"/>
                </mxCell>
                <mxCell id="9" value="&lt;font style=&quot;font-size: 30px;&quot;&gt;SQL Filters&lt;/font&gt;" style="text;html=1;align=center;verticalAlign=middle;whiteSpace=wrap;rounded=0;" vertex="1" parent="1">
                    <mxGeometry x="220" y="-70" width="175" height="70" as="geometry"/>
                </mxCell>
                <mxCell id="37" style="edgeStyle=none;html=1;exitX=1;exitY=0.11;exitDx=0;exitDy=0;entryX=0;entryY=0.25;entryDx=0;entryDy=0;exitPerimeter=0;" edge="1" parent="1" source="10" target="23">
                    <mxGeometry relative="1" as="geometry"/>
                </mxCell>
                <mxCell id="10" value="&lt;h1 style=&quot;margin-top: 0px;&quot;&gt;(# fromEach) AS data&lt;br&gt;&lt;/h1&gt;&lt;font style=&quot;font-size: 5px;&quot;&gt;WITH FromEachRankedSongs AS (&lt;br&gt;&amp;nbsp; &amp;nbsp; SELECT&lt;br&gt;&lt;span style=&quot;&quot;&gt;&#9;&lt;/span&gt;&lt;span style=&quot;white-space: pre;&quot;&gt;&#9;&lt;/span&gt;fs.Artist, fs.ArtistLastFmUrl,&lt;br&gt;&lt;span style=&quot;&quot;&gt;&#9;&lt;/span&gt;&lt;span style=&quot;&quot;&gt;&#9;&lt;/span&gt;&lt;span style=&quot;white-space: pre;&quot;&gt;&#9;&lt;/span&gt;fs.AlbumTitle, fs.AlbumLastFmUrl,&lt;br&gt;&lt;span style=&quot;&quot;&gt;&#9;&lt;/span&gt;&lt;span style=&quot;&quot;&gt;&#9;&lt;/span&gt;&lt;span style=&quot;white-space: pre;&quot;&gt;&#9;&lt;/span&gt;fs.SongTitle, fs.SpID,&lt;br&gt;&lt;span style=&quot;&quot;&gt;&#9;&lt;/span&gt;&lt;span style=&quot;&quot;&gt;&#9;&lt;/span&gt;&lt;span style=&quot;white-space: pre;&quot;&gt;&#9;&lt;/span&gt;fs.YTUrl, fsSongLastFmUrl,&lt;br&gt;&amp;nbsp;&amp;nbsp;&amp;nbsp;&amp;nbsp;&amp;nbsp;&amp;nbsp;&amp;nbsp; # Add if artist fromEach is not null&lt;br&gt;&amp;nbsp;&amp;nbsp;&amp;nbsp;&amp;nbsp;&amp;nbsp;&amp;nbsp;&amp;nbsp; ROW_NUMBER() OVER (PARTITION BY fs.ArtistID ORDER BY fs.SongTitle) AS from_each_artist,&lt;br&gt;&amp;nbsp;&amp;nbsp;&amp;nbsp;&amp;nbsp;&amp;nbsp;&amp;nbsp;&amp;nbsp; # Add if album fromEach is not null&lt;br&gt;&amp;nbsp;&amp;nbsp;&amp;nbsp;&amp;nbsp;&amp;nbsp;&amp;nbsp;&amp;nbsp; ROW_NUMBER() OVER (PARTITION BY fs.AlbumID ORDER BY fs.SongTitle) AS from_each_album,&lt;br&gt;&amp;nbsp;&amp;nbsp;&amp;nbsp;&amp;nbsp;&amp;nbsp;&amp;nbsp;&amp;nbsp; # Add if genre fromEach is not null&lt;br&gt;&amp;nbsp;&amp;nbsp;&amp;nbsp;&amp;nbsp;&amp;nbsp;&amp;nbsp;&amp;nbsp; ROW_NUMBER() OVER (PARTITION BY fs.Genre ORDER BY fs.SongTitle) AS from_each_genre&lt;br&gt;&amp;nbsp;&amp;nbsp;&amp;nbsp; FROM FilteredSongs fs&lt;br&gt;)&lt;br&gt;# Add if artist fromEach is not null&lt;br&gt;SELECT * FROM FromEachRankedSongs WHERE rn_artist &amp;lt;= 20&lt;br&gt;# Add if album fromEach is not null&lt;br&gt;UNION&lt;br&gt;SELECT *&amp;nbsp;FROM&amp;nbsp;FromEachRankedSongs&amp;nbsp;WHERE&amp;nbsp;rn_album &amp;lt;= 10&lt;br&gt;# Add if genre fromEach is not null&lt;br&gt;UNION&lt;br&gt;SELECT *&amp;nbsp;FROM&amp;nbsp;FromEachRankedSongs&amp;nbsp;WHERE&amp;nbsp;rn_genre &amp;lt;= 40&lt;br&gt;ORDER BY ${orderBy}&lt;br&gt;&lt;/font&gt;" style="text;html=1;whiteSpace=wrap;overflow=hidden;rounded=0;" vertex="1" parent="1">
                    <mxGeometry x="80" y="460" width="250" height="390" as="geometry"/>
                </mxCell>
                <mxCell id="11" value="" style="endArrow=classic;startArrow=classic;html=1;rounded=0;entryX=0.5;entryY=1;entryDx=0;entryDy=0;entryPerimeter=0;exitX=0.5;exitY=0;exitDx=0;exitDy=0;exitPerimeter=0;" edge="1" parent="1" source="3" target="8">
                    <mxGeometry width="50" height="50" relative="1" as="geometry">
                        <mxPoint x="430" y="80" as="sourcePoint"/>
                        <mxPoint x="480" y="30" as="targetPoint"/>
                    </mxGeometry>
                </mxCell>
                <mxCell id="12" value="" style="endArrow=classic;startArrow=classic;html=1;rounded=0;exitX=0.145;exitY=0;exitDx=0;exitDy=4.35;exitPerimeter=0;entryX=0.5;entryY=1;entryDx=0;entryDy=0;entryPerimeter=0;" edge="1" parent="1" source="4" target="8">
                    <mxGeometry width="50" height="50" relative="1" as="geometry">
                        <mxPoint x="440" y="90" as="sourcePoint"/>
                        <mxPoint x="470" y="50" as="targetPoint"/>
                    </mxGeometry>
                </mxCell>
                <mxCell id="13" style="edgeStyle=orthogonalEdgeStyle;rounded=0;orthogonalLoop=1;jettySize=auto;html=1;exitX=0;exitY=0.5;exitDx=0;exitDy=0;exitPerimeter=0;entryX=1;entryY=0.5;entryDx=0;entryDy=0;entryPerimeter=0;" edge="1" parent="1" source="3" target="2">
                    <mxGeometry relative="1" as="geometry"/>
                </mxCell>
                <mxCell id="14" style="edgeStyle=orthogonalEdgeStyle;rounded=0;orthogonalLoop=1;jettySize=auto;html=1;exitX=0.145;exitY=0;exitDx=0;exitDy=4.35;exitPerimeter=0;entryX=0.5;entryY=1;entryDx=0;entryDy=0;entryPerimeter=0;" edge="1" parent="1" source="7" target="2">
                    <mxGeometry relative="1" as="geometry"/>
                </mxCell>
                <mxCell id="15" style="edgeStyle=orthogonalEdgeStyle;rounded=0;orthogonalLoop=1;jettySize=auto;html=1;exitX=0.5;exitY=0;exitDx=0;exitDy=0;exitPerimeter=0;entryX=0.5;entryY=1;entryDx=0;entryDy=0;entryPerimeter=0;" edge="1" parent="1" source="7" target="3">
                    <mxGeometry relative="1" as="geometry"/>
                </mxCell>
                <mxCell id="16" style="edgeStyle=orthogonalEdgeStyle;rounded=0;orthogonalLoop=1;jettySize=auto;html=1;exitX=1;exitY=0;exitDx=0;exitDy=15;exitPerimeter=0;entryX=0;entryY=1;entryDx=0;entryDy=-15;entryPerimeter=0;" edge="1" parent="1" source="7" target="4">
                    <mxGeometry relative="1" as="geometry">
                        <Array as="points">
                            <mxPoint x="480" y="205"/>
                            <mxPoint x="480" y="145"/>
                        </Array>
                    </mxGeometry>
                </mxCell>
                <mxCell id="17" style="edgeStyle=orthogonalEdgeStyle;rounded=0;orthogonalLoop=1;jettySize=auto;html=1;exitX=1;exitY=0;exitDx=0;exitDy=52.5;exitPerimeter=0;entryX=0;entryY=0.5;entryDx=0;entryDy=0;entryPerimeter=0;" edge="1" parent="1" source="7" target="6">
                    <mxGeometry relative="1" as="geometry"/>
                </mxCell>
                <mxCell id="18" style="edgeStyle=orthogonalEdgeStyle;rounded=0;orthogonalLoop=1;jettySize=auto;html=1;exitX=1;exitY=0;exitDx=0;exitDy=27.5;exitPerimeter=0;entryX=-0.003;entryY=0.723;entryDx=0;entryDy=0;entryPerimeter=0;" edge="1" parent="1" source="7" target="5">
                    <mxGeometry relative="1" as="geometry"/>
                </mxCell>
                <mxCell id="19" style="edgeStyle=orthogonalEdgeStyle;rounded=0;orthogonalLoop=1;jettySize=auto;html=1;exitX=1;exitY=0.5;exitDx=0;exitDy=0;exitPerimeter=0;entryX=0.5;entryY=1;entryDx=0;entryDy=0;entryPerimeter=0;" edge="1" parent="1" source="6" target="5">
                    <mxGeometry relative="1" as="geometry"/>
                </mxCell>
                <mxCell id="20" style="edgeStyle=orthogonalEdgeStyle;rounded=0;orthogonalLoop=1;jettySize=auto;html=1;exitX=0.5;exitY=0;exitDx=0;exitDy=0;exitPerimeter=0;entryX=0.5;entryY=1;entryDx=0;entryDy=0;entryPerimeter=0;" edge="1" parent="1" source="6" target="4">
                    <mxGeometry relative="1" as="geometry">
                        <Array as="points">
                            <mxPoint x="540" y="240"/>
                            <mxPoint x="540" y="240"/>
                        </Array>
                    </mxGeometry>
                </mxCell>
                <mxCell id="31" style="edgeStyle=none;html=1;exitX=0.25;exitY=1;exitDx=0;exitDy=0;" edge="1" parent="1" source="21" target="27">
                    <mxGeometry relative="1" as="geometry"/>
                </mxCell>
                <mxCell id="21" value="&lt;h1 style=&quot;margin-top: 0px;&quot;&gt;location, time&lt;br&gt;&lt;/h1&gt;&lt;font style=&quot;font-size: 5px;&quot;&gt;SELECT&amp;nbsp; &lt;br&gt;&lt;span style=&quot;white-space: pre;&quot;&gt;&#9;&lt;/span&gt;ea.ArtistID, v.Name AS VenueName, e.EventDate&lt;br&gt;&amp;nbsp;FROM Events as e&lt;br&gt;JOIN Venues as v ON e.VenueID = v.ID&lt;br&gt;JOIN EventsArtists AS ea ON e.ID = ea.EventID&lt;br&gt;LEFT JOIN Genres AS g ON e.ID = g.EventID&lt;br&gt;${eventWhereConditional}&lt;br&gt;&lt;br&gt;&lt;/font&gt;" style="text;html=1;whiteSpace=wrap;overflow=hidden;rounded=0;" vertex="1" parent="1">
                    <mxGeometry x="-120" y="160" width="200" height="160" as="geometry"/>
                </mxCell>
                <mxCell id="30" style="edgeStyle=none;html=1;exitX=0;exitY=0.75;exitDx=0;exitDy=0;" edge="1" parent="1" source="22" target="27">
                    <mxGeometry relative="1" as="geometry"/>
                </mxCell>
                <mxCell id="22" value="&lt;h1 style=&quot;margin-top: 0px;&quot;&gt;personal taste&lt;br&gt;&lt;/h1&gt;&lt;font style=&quot;font-size: 5px;&quot;&gt;SELECT&amp;nbsp;&lt;br&gt;&lt;span style=&quot;white-space: pre;&quot;&gt;&#9;&lt;/span&gt;a.ID AS ArtistID, a.Name AS Artist, a.LastFmUrl AS ArtistLastFmUrl,&lt;br&gt;&lt;span style=&quot;white-space: pre;&quot;&gt;&#9;&lt;/span&gt;al.ID AS AbumID, al.Title AS AlbumTitle, al.LastFmUrl AS AlbumLastFmUrl,&lt;br&gt;&lt;span style=&quot;white-space: pre;&quot;&gt;&#9;&lt;/span&gt;s.Title AS SongTitle, s.SpotifyExternalID AS SpID,&lt;br&gt;&lt;span style=&quot;white-space: pre;&quot;&gt;&#9;&lt;/span&gt;s.YTUrl AS YTUrl, s.LastFmUrl AS SongLastFmUrl,&lt;br&gt;&lt;span style=&quot;white-space: pre;&quot;&gt;&#9;&lt;/span&gt;g.Name AS Genre&lt;br&gt;&amp;nbsp;FROM Songs as s&lt;br&gt;JOIN Artists AS a ON s.ArtistID = a.ID&lt;br&gt;LEFT JOIN Albums AS al ON s.AlbumID = al.ID&lt;br&gt;LEFT JOIN Genres AS g ON a.ID = g.ArtistID&lt;br&gt;${songWhereConditional}&lt;br&gt;&lt;/font&gt;" style="text;html=1;whiteSpace=wrap;overflow=hidden;rounded=0;" vertex="1" parent="1">
                    <mxGeometry x="95" y="160" width="230" height="220" as="geometry"/>
                </mxCell>
                <mxCell id="23" value="&lt;h1 style=&quot;margin-top: 0px;&quot;&gt;total count filtered songs&lt;br&gt;&lt;/h1&gt;&lt;font style=&quot;font-size: 5px;&quot;&gt;SELECT COUNT(*) AS total FROM data&lt;br&gt;&lt;/font&gt;" style="text;html=1;whiteSpace=wrap;overflow=hidden;rounded=0;" vertex="1" parent="1">
                    <mxGeometry x="420" y="390" width="250" height="100" as="geometry"/>
                </mxCell>
                <mxCell id="25" value="&lt;div align=&quot;left&quot;&gt;To avoid joining entire database, Selecting events and songs separatly, then joining results.&lt;/div&gt;&lt;div align=&quot;left&quot;&gt;1. filter by location time&lt;/div&gt;&lt;div align=&quot;left&quot;&gt;2. filter by taste&lt;/div&gt;&lt;div align=&quot;left&quot;&gt;3. limit # from each&lt;/div&gt;&lt;div align=&quot;left&quot;&gt;4. Order by&lt;/div&gt;&lt;div align=&quot;left&quot;&gt;5. Count total songs&lt;/div&gt;" style="text;html=1;align=left;verticalAlign=middle;whiteSpace=wrap;rounded=0;" vertex="1" parent="1">
                    <mxGeometry x="40" y="10" width="200" height="140" as="geometry"/>
                </mxCell>
                <mxCell id="32" style="edgeStyle=none;html=1;exitX=0.663;exitY=1.077;exitDx=0;exitDy=0;exitPerimeter=0;entryX=0.25;entryY=0;entryDx=0;entryDy=0;" edge="1" parent="1" source="27" target="10">
                    <mxGeometry relative="1" as="geometry">
                        <mxPoint x="88.28125" y="440" as="sourcePoint"/>
                    </mxGeometry>
                </mxCell>
                <mxCell id="27" value="JOIN ON ArtistID" style="text;html=1;align=center;verticalAlign=middle;resizable=0;points=[];autosize=1;strokeColor=none;fillColor=none;" vertex="1" parent="1">
                    <mxGeometry x="-40" y="390" width="110" height="30" as="geometry"/>
                </mxCell>
                <mxCell id="39" style="edgeStyle=orthogonalEdgeStyle;rounded=0;orthogonalLoop=1;jettySize=auto;html=1;exitX=0;exitY=0.5;exitDx=0;exitDy=0;exitPerimeter=0;entryX=1;entryY=1;entryDx=0;entryDy=-15;entryPerimeter=0;" edge="1" parent="1" source="5" target="4">
                    <mxGeometry relative="1" as="geometry">
                        <mxPoint x="670" y="210" as="sourcePoint"/>
                        <mxPoint x="760" y="170" as="targetPoint"/>
                    </mxGeometry>
                </mxCell>
            </root>
        </mxGraphModel>
    </diagram>
</mxfile>